# xmcd
# Copyright (C) 1995-1998 Ti Kan
#
# Track frame offsets:
#       150
#       13132
#       28660
#       40303
#       53948
#       66320
#       76118
#       92689
#       107485
#       119213
#       136789
#       146565
#       157297
#       170548
#
# Disc length: 2519 seconds
#
# Revision: 0
# Processed by: cddbd v1.5.2PL0 Copyright (c) Steve Scherf et al.
# Submitted via: CD-Import v1.0
#
DISCID=c409d50e
DTITLE=Kassette - Neighborhood
DYEAR=10
DGENRE=
TTITLE0=Hiding Place
TTITLE1=Annie
TTITLE2=Something To Fight For
TTITLE3=Don't Move
TTITLE4=Moving Tree
TTITLE5=At Last
TTITLE6=I Care Because You Do
TTITLE7=Creepers
TTITLE8=Sunday
TTITLE9=Losing Faith
TTITLE10=Only Child's Complaint
TTITLE11=Home
TTITLE12=When I Fall
TTITLE13=Windy Song
EXTD=
EXTT0=
EXTT1=
EXTT2=
EXTT3=
EXTT4=
EXTT5=
EXTT6=
EXTT7=
EXTT8=
EXTT9=
EXTT10=
EXTT11=
EXTT12=
EXTT13=
PLAYORDER=
